<svg xmlns="http://www.w3.org/2000/svg" width="40" height="40" viewBox="0 0 40 40" fill="none">
  <rect x="0.5" y="0.5" width="39" height="39" rx="7.5" fill="#E0F6FF"/>
  <rect x="0.5" y="0.5" width="39" height="39" rx="7.5" stroke="#00B2F7"/>
  <path d="M23.7498 17.5001C23.7498 16.7501 24.2498 16.2501 24.9998 16.2501H29.9998C29.9998 14.1251 28.3748 12.5001 26.2498 12.5001H23.7498V10.0001H26.2498C26.9998 10.0001 27.4998 9.50006 27.4998 8.75006C27.4998 8.00006 26.9998 7.50006 26.2498 7.50006H16.2498C12.7498 7.50006 9.99976 10.2501 9.99976 13.7501V31.2501C9.99976 32.0001 10.4998 32.5001 11.2498 32.5001C11.9998 32.5001 12.4998 32.0001 12.4998 31.2501V13.7501C12.4998 11.6251 14.1248 10.0001 16.2498 10.0001H21.2498V12.5001H18.7498C16.6248 12.5001 14.9998 14.1251 14.9998 16.2501V22.3751C14.9998 23.6251 15.6248 24.7501 16.6248 25.5001L18.7498 26.8751V27.5001C18.7498 28.8751 19.8748 30.0001 21.2498 30.0001V31.2501C21.2498 32.0001 21.7498 32.5001 22.4998 32.5001C23.2498 32.5001 23.7498 32.0001 23.7498 31.2501V30.0001C25.1248 30.0001 26.2498 28.8751 26.2498 27.5001V26.8751L28.3748 25.5001C28.9998 25.1251 29.4998 24.5001 29.7498 23.7501H26.2498C25.4998 23.7501 24.9998 23.2501 24.9998 22.5001C24.9998 21.7501 25.4998 21.2501 26.2498 21.2501H29.9998V18.7501H24.9998C24.2498 18.7501 23.7498 18.2501 23.7498 17.5001Z" fill="#00B2F7"/>
</svg>