<svg width="127" height="20" viewBox="0 0 127 20" fill="none" xmlns="http://www.w3.org/2000/svg">
<path fill-rule="evenodd" clip-rule="evenodd" d="M46.3134 2.09739C46.6417 1.18949 47.5036 0.584579 48.469 0.584579L62.7824 0.584584C64.4436 0.584585 65.6173 2.21116 65.0937 3.78769L60.497 17.6264C60.1848 18.5661 59.3045 19.1992 58.3143 19.196L43.611 19.1486C41.9262 19.1432 40.7557 17.4697 41.3286 15.8852L46.3134 2.09739ZM50.2481 5.55108C50.3471 5.26106 50.6196 5.06612 50.926 5.06612L58.5269 5.06612C59.0243 5.06612 59.3703 5.56068 59.1998 6.02797L56.2534 14.1021C56.1527 14.3782 55.8935 14.5647 55.5997 14.5726L48.1217 14.7723C47.6227 14.7856 47.2634 14.2973 47.4246 13.8249L50.2481 5.55108ZM6.52907 0.584637H21.5607C23.3039 0.584637 24.5448 2.27825 24.0195 3.94036L22.2727 9.46764C21.8558 10.7869 20.6271 11.68 19.2436 11.6695L7.89773 11.5832L5.31184 19.2083L0.0828857 19.1367L2.95591 10.8993L2.95603 10.8993L6.52907 0.584637ZM10.0389 4.88241H17.3835C18.1687 4.88241 18.7487 5.61465 18.5688 6.37901C18.4394 6.92907 17.9486 7.31781 17.3835 7.31781H9.32262L10.0389 4.88241ZM25.5663 3.26241C26.1345 1.65799 27.6533 0.586786 29.3553 0.590084L45.4411 0.621251L43.9516 5.27933H31.5755C30.7847 5.27933 30.0802 5.77868 29.8182 6.52479L25.3152 19.3515H19.8692L25.5663 3.26241Z" fill="#00B2F7"/>
<path fill-rule="evenodd" clip-rule="evenodd" d="M66.6597 3.23967C67.2262 1.64651 68.7309 0.579666 70.4217 0.572339L87.1187 0.499985L86.0636 4.15077H66.3357L66.6597 3.23967ZM65.9227 5.3122H71.9379C71.4723 5.5146 71.0982 5.90369 70.9228 6.40353L70.6974 7.04533H65.3065L65.9227 5.3122ZM64.8935 8.20676L64.378 9.65634H69.7808L70.2897 8.20676H64.8935ZM63.4592 12.2405L63.9651 10.8178H69.3731L68.8736 12.2405H63.4592ZM63.0462 13.4019L62.5595 14.7707H67.9853L68.4659 13.4019H63.0462ZM61.7555 17.0318L62.1465 15.9321H67.5776L67.1915 17.0318H61.7555ZM61.3425 18.1932L60.9738 19.2302H66.4197L66.7838 18.1932H61.3425ZM104.257 0.581337H88.1667L86.9407 4.44968H105.683L106.111 3.12874C106.517 1.87045 105.579 0.581337 104.257 0.581337ZM99.5423 7.34424L100.073 5.61111H105.308L105.274 5.71398L104.728 7.34424H99.5423ZM85.602 8.50567L85.1575 9.95526H103.807V10.0917L104.338 8.50567H85.602ZM84.3653 12.5394L84.8015 11.1167H103.463L102.986 12.5394H97.9803L98.172 11.8995L89.1718 11.8995C88.7175 11.8995 88.3089 12.1512 88.0998 12.5394H84.3653ZM84.0092 13.7008L83.5895 15.0696H102.138L102.597 13.7008H97.6323L97.4423 14.3349H89.1718C88.701 14.3349 88.3067 14.0729 88.1028 13.7008H84.0092ZM83.3898 17.3307C83.2868 16.9826 83.2491 16.6104 83.2892 16.2311H101.748L101.38 17.3307H83.3898ZM84.0585 18.4921C84.5756 19.0406 85.3106 19.3911 86.1488 19.3887L95.9337 19.3609L100.685 19.403L100.99 18.4921H84.0585ZM112.925 0.584555H108.069L106.897 4.23385H111.79L112.925 0.584555ZM111.429 5.39527L110.891 7.12841H105.966L106.199 6.40349L106.523 5.39527H111.429ZM124.802 7.12841H119.834L120.395 5.39527H125.362L124.802 7.12841ZM105.593 8.28983H124.427L123.959 9.73942H105.155C105.172 9.62987 105.198 9.5198 105.233 9.40994L105.264 9.31296L105.593 8.28983ZM105.296 10.9008C105.617 11.662 106.367 12.2224 107.284 12.2224H118.088L118.061 12.3235H123.124L123.584 10.9008H105.296ZM115.401 14.4591C116.226 14.4591 116.983 14.0876 117.488 13.485H122.749L122.307 14.8538H103.469L103.598 14.4591H115.401ZM103.091 16.0152L102.732 17.1149H121.111C121.395 16.7805 121.643 16.4123 121.849 16.0152H103.091ZM102.06 19.1781L102.354 18.2763H119.776C118.856 18.8594 117.771 19.1894 116.628 19.1886L102.06 19.1781ZM125.737 4.23385H120.772L121.955 0.584555H126.915L125.737 4.23385Z" fill="#00B2F7"/>
</svg>
