<svg xmlns="http://www.w3.org/2000/svg" width="40" height="40" viewBox="0 0 40 40" fill="none">
  <rect x="0.5" y="0.5" width="39" height="39" rx="7.5" fill="#E0F6FF"/>
  <rect x="0.5" y="0.5" width="39" height="39" rx="7.5" stroke="#00B2F7"/>
  <path d="M14.268 19.2209H6.74008C6.66269 19.2209 6.58862 19.1891 6.53528 19.133C6.48166 19.0772 6.45375 19.0017 6.45734 18.9244C6.69531 13.9823 8.85885 10.1121 12.8875 7.42091C12.9518 7.37779 13.0312 7.36232 13.1066 7.38001C13.1821 7.39686 13.2473 7.44385 13.2874 7.51046L17.253 14.1089C17.3328 14.2418 17.2906 14.4146 17.1582 14.4958C15.5919 15.4554 14.6171 17.1198 14.5507 18.9481C14.5452 19.1004 14.4203 19.2209 14.268 19.2209ZM19.8734 32.6273C17.7369 32.6273 15.5803 32.1102 13.4162 31.0748C13.3463 31.0414 13.2932 30.9808 13.2691 30.907C13.2454 30.8335 13.2526 30.7531 13.2893 30.6851L16.8973 23.9963C16.9335 23.9289 16.9954 23.8791 17.0692 23.8584C17.1413 23.8374 17.2212 23.8471 17.2878 23.8855C18.1073 24.3586 19.045 24.6088 19.9997 24.6088C20.8968 24.6088 21.7522 24.3971 22.5422 23.98C22.6759 23.909 22.8409 23.9562 22.9178 24.0859L26.7056 30.4811C26.7452 30.5477 26.7557 30.6276 26.7346 30.7022C26.7136 30.7766 26.6631 30.8393 26.5945 30.8755C24.3892 32.0433 22.1428 32.6273 19.8734 32.6273ZM33.2604 19.2212H25.7327C25.5805 19.2212 25.4553 19.1007 25.45 18.9484C25.3842 17.1198 24.4094 15.4554 22.8423 14.4958C22.7099 14.4148 22.6676 14.2418 22.7475 14.1089L26.7131 7.51018C26.7532 7.44357 26.8184 7.39659 26.8938 7.37973C26.9693 7.36232 27.0486 7.37724 27.113 7.42063C31.14 10.1118 33.3032 13.9823 33.5431 18.9244C33.5467 19.0017 33.5188 19.0772 33.4652 19.1333C33.4118 19.1894 33.3378 19.2212 33.2604 19.2212ZM20 22.4267C19.4278 22.4267 18.8648 22.2764 18.3718 21.9922C17.3574 21.4102 16.7273 20.3223 16.7273 19.1529L16.7303 19.0283C16.7698 17.9332 17.3547 16.9347 18.2944 16.3592C19.322 15.731 20.6829 15.7321 21.7064 16.3592C22.6461 16.9347 23.2309 17.9332 23.2704 19.0305C23.2726 19.067 23.2735 19.1101 23.2735 19.1529C23.2735 20.3726 22.6038 21.4823 21.5253 22.0489C21.0513 22.2996 20.5381 22.4267 20 22.4267Z" fill="#00B2F7"/>
</svg>