<svg xmlns="http://www.w3.org/2000/svg" width="40" height="40" viewBox="0 0 40 40" fill="none">
  <rect x="0.5" y="0.5" width="39" height="39" rx="7.5" fill="#E0F6FF"/>
  <rect x="0.5" y="0.5" width="39" height="39" rx="7.5" stroke="#00B2F7"/>
  <path d="M29.5414 9.47919C29.2914 9.22919 28.9164 9.10419 28.5414 9.22919C25.7914 9.85419 23.0414 9.22919 20.7914 7.60419C20.4164 7.35419 19.7914 7.35419 19.4164 7.60419C17.0414 9.22919 14.2914 9.85419 11.5414 9.22919C10.9164 9.10419 10.1664 9.60419 10.0414 10.2292C10.0414 10.3542 10.0414 10.3542 10.0414 10.4792V19.8542C10.0414 23.4792 11.7914 26.8542 14.7914 28.9792L19.4164 32.2292C19.7914 32.4792 20.4164 32.4792 20.9164 32.2292L25.5414 28.9792C28.5414 26.8542 30.2914 23.4792 30.2914 19.8542V10.4792C30.0414 10.1042 29.9164 9.72919 29.5414 9.47919ZM23.7914 18.7292L19.5414 22.9792C19.0414 23.4792 18.2914 23.4792 17.7914 22.9792L15.7914 20.9792C15.2914 20.4792 15.2914 19.7292 15.7914 19.2292C16.2914 18.7292 17.0414 18.7292 17.5414 19.2292L18.6664 20.3542L22.0414 16.9792C22.5414 16.4792 23.2914 16.4792 23.7914 16.9792C24.2914 17.4792 24.2914 18.2292 23.7914 18.7292Z" fill="#00B2F7"/>
</svg>